<?xml version="1.0" standalone="no"?>
<!DOCTYPE svg PUBLIC "-//W3C//DTD SVG 20010904//EN"
 "http://www.w3.org/TR/2001/REC-SVG-20010904/DTD/svg10.dtd">
<svg version="1.0" xmlns="http://www.w3.org/2000/svg"
 width="378.000000pt" height="378.000000pt" viewBox="0 0 378.000000 378.000000"
 preserveAspectRatio="xMidYMid meet">
<metadata>
Created by potrace 1.11, written by Peter Selinger 2001-2013
</metadata>
<g transform="translate(0.000000,378.000000) scale(0.100000,-0.100000)"
fill="#000000" stroke="none">
<path d="M2665 3765 c-96 -51 -126 -148 -72 -230 45 -69 141 -94 215 -56 60
31 87 74 87 141 0 91 -55 147 -154 156 -31 3 -56 -1 -76 -11z"/>
<path d="M1354 3501 c-38 -23 -115 -113 -144 -168 -30 -59 -27 -102 19 -238
22 -66 42 -132 45 -147 l5 -28 -129 0 -128 0 8 34 c22 98 -9 176 -107 272 -68
67 -142 109 -205 118 -35 5 -38 4 -38 -19 0 -14 0 -28 -1 -32 0 -5 19 -12 42
-17 71 -14 198 -116 236 -190 15 -30 15 -147 0 -162 -7 -7 -77 -12 -209 -13
l-67 -1 5 -487 c3 -269 6 -617 7 -774 l2 -287 -47 3 c-125 7 -236 -80 -253
-198 -21 -137 92 -261 237 -260 32 0 59 -3 59 -6 1 -3 3 -166 4 -361 2 -195 3
-359 4 -365 1 -7 154 -9 444 -7 l444 3 -6 -48 c-10 -79 -1 -110 35 -119 30 -8
73 19 167 106 l69 63 366 -2 c202 -2 422 -4 490 -5 l122 -2 -6 655 c-3 361 -7
791 -9 956 -2 165 -4 408 -4 540 l-1 240 -68 57 c-37 32 -78 68 -92 80 -27 24
-69 61 -189 168 -107 95 -92 89 -239 86 -73 -2 -132 1 -132 5 0 16 50 57 77
63 15 4 39 9 53 12 48 11 295 16 346 7 63 -12 97 -1 92 29 -3 19 -13 24 -73
33 -65 11 -283 12 -332 1 -11 -2 -41 -7 -66 -11 -70 -11 -119 -43 -146 -97
-20 -42 -27 -48 -55 -49 -17 0 -64 -2 -103 -3 -40 -1 -79 1 -85 6 -7 4 -10 8
-6 8 10 0 -24 95 -62 170 -44 88 -93 146 -143 169 -44 21 -51 19 -61 -16 -6
-18 -1 -25 33 -42 22 -12 53 -40 69 -63 36 -52 90 -168 99 -208 l6 -30 -89 -1
c-49 0 -113 -1 -141 -1 -42 -1 -53 -4 -53 -17 0 -9 20 -94 44 -189 43 -172 44
-174 87 -213 41 -37 37 -36 -43 17 -98 64 -88 46 -143 254 -20 74 -40 139 -45
144 -6 6 -10 17 -10 26 0 10 -20 78 -45 152 -25 75 -45 145 -45 156 0 28 63
119 117 169 42 39 44 43 31 67 l-13 26 -31 -19z"/>
<path d="M2615 3377 c-75 -24 -103 -81 -85 -174 1 -8 49 -52 67 -61 30 -17 79
-15 118 4 142 67 50 279 -100 231z"/>
<path d="M2980 3340 c-83 -15 -132 -69 -132 -147 0 -79 68 -143 152 -143 75 0
148 61 151 125 3 60 -2 76 -33 110 -41 43 -92 64 -138 55z"/>
<path d="M3265 3172 c-37 -8 -65 -34 -76 -72 -10 -34 -9 -43 10 -73 60 -98
208 -43 186 69 -9 50 -68 87 -120 76z"/>
<path d="M2914 2859 c-12 -4 -31 -20 -43 -35 -63 -80 62 -182 134 -109 24 24
29 39 25 80 -4 43 -72 81 -116 64z"/>
</g>
</svg>
