<?xml version="1.0" encoding="UTF-8" standalone="no"?>
<!-- Created with Inkscape (http://www.inkscape.org/) -->

<svg
   xmlns:dc="http://purl.org/dc/elements/1.1/"
   xmlns:cc="http://creativecommons.org/ns#"
   xmlns:rdf="http://www.w3.org/1999/02/22-rdf-syntax-ns#"
   xmlns:svg="http://www.w3.org/2000/svg"
   xmlns="http://www.w3.org/2000/svg"
   xmlns:sodipodi="http://sodipodi.sourceforge.net/DTD/sodipodi-0.dtd"
   xmlns:inkscape="http://www.inkscape.org/namespaces/inkscape"
   width="931.88977"
   height="152.3622"
   id="svg3082"
   version="1.1"
   inkscape:version="0.48.2 r9819"
   sodipodi:docname="banner.svg">
  <defs
     id="defs3084" />
  <sodipodi:namedview
     inkscape:document-units="mm"
     pagecolor="#ffffff"
     bordercolor="#666666"
     borderopacity="1.0"
     inkscape:pageopacity="0.0"
     inkscape:pageshadow="2"
     inkscape:zoom="1.2279853"
     inkscape:cx="490"
     inkscape:cy="195.73544"
     inkscape:current-layer="layer1"
     id="namedview3086"
     showgrid="false"
     units="mm"
     inkscape:window-width="1600"
     inkscape:window-height="824"
     inkscape:window-x="-4"
     inkscape:window-y="-4"
     inkscape:window-maximized="1" />
  <metadata
     id="metadata3088">
    <rdf:RDF>
      <cc:Work
         rdf:about="">
        <dc:format>image/svg+xml</dc:format>
        <dc:type
           rdf:resource="http://purl.org/dc/dcmitype/StillImage" />
        <dc:title></dc:title>
      </cc:Work>
    </rdf:RDF>
  </metadata>
  <g
     inkscape:label="Layer 1"
     inkscape:groupmode="layer"
     id="layer1"
     transform="translate(0,-591.73225)">
    <g
       id="g3116"
       transform="translate(-51.762833,513.81762)">
      <path
         id="path3034"
         style="font-size:144px;font-style:normal;font-variant:normal;font-weight:normal;font-stretch:normal;line-height:125%;letter-spacing:0px;word-spacing:0px;fill:#aa0000;fill-opacity:1;stroke:none;font-family:ComputerAmok;-inkscape-font-specification:ComputerAmok"
         d="m 145.32229,91.12069 -8.20899,0 0,-8.354 8.20899,0 z m -16.84864,0 -8.34961,0 0,-8.354 8.34961,0 z m 16.84864,16.84424 -8.20899,0 0,-8.34961 8.20899,0 z m -33.83789,-16.84424 -8.35401,0 0,-8.354 8.35401,0 z m 33.83789,33.83789 -8.20899,0 0,-8.34961 8.20899,0 z m -50.68653,-33.83789 -8.354,0 0,-8.354 8.354,0 z m 50.68653,50.83155 -8.20899,0 0,-8.35401 8.20899,0 z m -67.68018,-50.83155 -8.34961,0 0,-8.354 8.34961,0 z m 67.68018,67.68018 -8.20899,0 0,-8.35401 8.20899,0 z m -84.66944,-67.68018 -8.354,0 0,-8.354 8.354,0 z m 84.66944,84.66944 -8.20899,0 0,-8.34961 8.20899,0 z m 0,16.84863 -8.20899,0 0,-8.34961 8.20899,0 z m -16.84864,16.99365 -76.1748,0 0,-110.01709 76.1748,0 0,50.68652 -16.98925,0 0,8.63965 16.98925,0 z m 16.84864,0 -8.20899,0 0,-8.354 8.20899,0 z m 0,16.98926 -8.20899,0 0,-8.34961 8.20899,0 z m -16.84864,0 -8.34961,0 0,-8.34961 8.34961,0 z m -16.98925,0 -8.35401,0 0,-8.34961 8.35401,0 z m -16.84864,0 -8.354,0 0,-8.34961 8.354,0 z m -16.99365,0 -8.34961,0 0,-8.34961 8.34961,0 z m -16.98926,0 -8.354,0 0,-8.34961 8.354,0 z m 42.33252,-76.31983 0,-42.19189 -25.19824,0 0,42.19189 z m 0,50.83155 0,-42.1919 -25.19824,0 0,42.1919 z m -8.34961,-76.17481 -8.354,0 0,-8.34961 8.354,0 z m 0,16.99366 -8.354,0 0,-8.35401 8.354,0 z m 0,33.83789 -8.354,0 0,-8.34961 8.354,0 z m 0,16.84863 -8.354,0 0,-8.34961 8.354,0 z"
         inkscape:connector-curvature="0" />
      <path
         id="path3036"
         style="font-size:144px;font-style:normal;font-variant:normal;font-weight:normal;font-stretch:normal;line-height:125%;letter-spacing:0px;word-spacing:0px;fill:#aa0000;fill-opacity:1;stroke:none;font-family:ComputerAmok;-inkscape-font-specification:ComputerAmok"
         d="m 195.32326,91.12069 -8.354,0 0,-8.354 8.354,0 z m -16.99365,0 -8.34961,0 0,-8.354 8.34961,0 z m 16.99365,16.84424 -8.354,0 0,-8.34961 8.354,0 z m -33.98291,-16.84424 -8.354,0 0,-8.354 8.354,0 z m 33.98291,33.83789 -8.354,0 0,-8.34961 8.354,0 z m 0,16.99366 -8.354,0 0,-8.35401 8.354,0 z m 0,16.84863 -8.354,0 0,-8.35401 8.354,0 z m 0,16.98926 -8.354,0 0,-8.34961 8.354,0 z m -16.99365,33.84228 -25.34326,0 0,-110.01709 25.34326,0 z m 16.99365,-16.99365 -8.354,0 0,-8.34961 8.354,0 z m 0,16.99365 -8.354,0 0,-8.354 8.354,0 z m 0,16.98926 -8.354,0 0,-8.34961 8.354,0 z m -16.99365,0 -8.34961,0 0,-8.34961 8.34961,0 z m -16.98926,0 -8.354,0 0,-8.34961 8.354,0 z"
         inkscape:connector-curvature="0" />
      <path
         id="path3038"
         style="font-size:144px;font-style:normal;font-variant:normal;font-weight:normal;font-stretch:normal;line-height:125%;letter-spacing:0px;word-spacing:0px;fill:#aa0000;fill-opacity:1;stroke:none;font-family:ComputerAmok;-inkscape-font-specification:ComputerAmok"
         d="m 278.3799,91.12069 -8.34961,0 0,-8.354 8.34961,0 z m -16.98925,0 -8.35401,0 0,-8.354 8.35401,0 z m 16.98925,16.84424 -8.34961,0 0,-8.34961 8.34961,0 z m -33.83789,-16.84424 -8.354,0 0,-8.354 8.354,0 z m 33.83789,33.83789 -8.34961,0 0,-8.34961 8.34961,0 z m -50.83154,-33.83789 -8.34961,0 0,-8.354 8.34961,0 z m 33.84229,33.83789 -8.35401,0 0,-8.34961 8.35401,0 z m 16.98925,16.99366 -8.34961,0 0,-8.35401 8.34961,0 z m -67.8208,-50.83155 -8.354,0 0,-8.354 8.354,0 z m 50.83155,50.83155 -8.35401,0 0,-8.35401 8.35401,0 z m 16.98925,16.84863 -8.34961,0 0,-8.35401 8.34961,0 z m -16.98925,0 -8.35401,0 0,-8.35401 8.35401,0 z m 16.98925,16.98926 -8.34961,0 0,-8.34961 8.34961,0 z m -67.8208,-50.83155 -8.354,0 0,-8.34961 8.354,0 z m 50.83155,50.83155 -8.35401,0 0,-8.34961 8.35401,0 z m 16.98925,16.84863 -8.34961,0 0,-8.34961 8.34961,0 z m -16.98925,-84.67383 -16.84864,0 0,101.66748 -25.34326,0 0,-101.66748 -16.99365,0 0,-8.34961 59.18555,0 z m -50.83155,33.98731 -8.354,0 0,-8.35401 8.354,0 z m 50.83155,50.68652 -8.35401,0 0,-8.34961 8.35401,0 z m 16.98925,16.99365 -8.34961,0 0,-8.354 8.34961,0 z m -67.8208,-50.83154 -8.354,0 0,-8.35401 8.354,0 z m 50.83155,50.83154 -8.35401,0 0,-8.354 8.35401,0 z m 16.98925,16.98926 -8.34961,0 0,-8.34961 8.34961,0 z m -67.8208,-50.83154 -8.354,0 0,-8.34961 8.354,0 z m 50.83155,50.83154 -8.35401,0 0,-8.34961 8.35401,0 z m -50.83155,-33.98291 -8.354,0 0,-8.34961 8.354,0 z m 33.98291,33.98291 -8.354,0 0,-8.34961 8.354,0 z m -33.98291,-16.98926 -8.354,0 0,-8.354 8.354,0 z m 16.98926,16.98926 -8.34961,0 0,-8.34961 8.34961,0 z m -16.98926,0 -8.354,0 0,-8.34961 8.354,0 z"
         inkscape:connector-curvature="0" />
      <path
         id="path3040"
         style="font-size:144px;font-style:normal;font-variant:normal;font-weight:normal;font-stretch:normal;line-height:125%;letter-spacing:0px;word-spacing:0px;fill:#aa0000;fill-opacity:1;stroke:none;font-family:ComputerAmok;-inkscape-font-specification:ComputerAmok"
         d="m 379.04104,91.12069 -8.20899,0 0,-8.354 8.20899,0 z m -16.84864,0 -8.34961,0 0,-8.354 8.34961,0 z m 16.84864,16.84424 -8.20899,0 0,-8.34961 8.20899,0 z m -33.83789,-16.84424 -8.35401,0 0,-8.354 8.35401,0 z m 33.83789,33.83789 -8.20899,0 0,-8.34961 8.20899,0 z m -50.68653,-33.83789 -8.354,0 0,-8.354 8.354,0 z m 50.68653,50.83155 -8.20899,0 0,-8.35401 8.20899,0 z m -67.68018,-50.83155 -8.34961,0 0,-8.354 8.34961,0 z m 67.68018,67.68018 -8.20899,0 0,-8.35401 8.20899,0 z m -84.66944,-67.68018 -8.354,0 0,-8.354 8.354,0 z m 33.98291,33.83789 -8.354,0 0,-8.34961 8.354,0 z m 50.68653,50.83155 -8.20899,0 0,-8.34961 8.20899,0 z m -50.68653,-33.83789 -8.354,0 0,-8.35401 8.354,0 z m 50.68653,50.68652 -8.20899,0 0,-8.34961 8.20899,0 z m -16.84864,16.99365 -76.1748,0 0,-42.19189 25.34326,0 0,33.83789 25.48828,0 0,-42.47754 -50.83154,0 0,-59.18555 76.1748,0 0,42.33692 -25.34326,0 0,-33.98731 -25.48828,0 0,42.48193 50.83154,0 z m 16.84864,0 -8.20899,0 0,-8.354 8.20899,0 z m -50.68653,-33.84228 -8.354,0 0,-8.34961 8.354,0 z m 50.68653,50.83154 -8.20899,0 0,-8.34961 8.20899,0 z m -50.68653,-33.98291 -8.354,0 0,-8.34961 8.354,0 z m 33.83789,33.98291 -8.34961,0 0,-8.34961 8.34961,0 z m -16.98925,0 -8.35401,0 0,-8.34961 8.35401,0 z m -16.84864,0 -8.354,0 0,-8.34961 8.354,0 z m -16.99365,0 -8.34961,0 0,-8.34961 8.34961,0 z m -16.98926,0 -8.354,0 0,-8.34961 8.354,0 z"
         inkscape:connector-curvature="0" />
      <path
         id="path3042"
         style="font-size:144px;font-style:normal;font-variant:normal;font-weight:normal;font-stretch:normal;line-height:125%;letter-spacing:0px;word-spacing:0px;fill:#aa0000;fill-opacity:1;stroke:none;font-family:ComputerAmok;-inkscape-font-specification:ComputerAmok"
         d="m 479.72854,91.12069 -8.20899,0 0,-8.354 8.20899,0 z m -16.84864,0 -8.34961,0 0,-8.354 8.34961,0 z m 16.84864,16.84424 -8.20899,0 0,-8.34961 8.20899,0 z m -33.83789,-16.84424 -8.35401,0 0,-8.354 8.35401,0 z m 33.83789,33.83789 -8.20899,0 0,-8.34961 8.20899,0 z m -50.68653,-33.83789 -8.354,0 0,-8.354 8.354,0 z m 50.68653,50.83155 -8.20899,0 0,-8.35401 8.20899,0 z m -67.68018,-50.83155 -8.34961,0 0,-8.354 8.34961,0 z m 67.68018,67.68018 -8.20899,0 0,-8.35401 8.20899,0 z m -84.66944,-67.68018 -8.354,0 0,-8.354 8.354,0 z m 33.98291,33.83789 -8.354,0 0,-8.34961 8.354,0 z m 50.68653,50.83155 -8.20899,0 0,-8.34961 8.20899,0 z m -50.68653,-33.83789 -8.354,0 0,-8.35401 8.354,0 z m 50.68653,50.68652 -8.20899,0 0,-8.34961 8.20899,0 z m -16.84864,16.99365 -76.1748,0 0,-110.01709 76.1748,0 0,42.33692 -25.34326,0 0,-33.98731 -25.48828,0 0,93.31348 25.48828,0 0,-42.47754 -16.84863,0 0,-8.35401 42.19189,0 z m 16.84864,0 -8.20899,0 0,-8.354 8.20899,0 z m -50.68653,-33.84228 -8.354,0 0,-8.34961 8.354,0 z m 50.68653,50.83154 -8.20899,0 0,-8.34961 8.20899,0 z m -50.68653,-33.98291 -8.354,0 0,-8.34961 8.354,0 z m 33.83789,33.98291 -8.34961,0 0,-8.34961 8.34961,0 z m -16.98925,0 -8.35401,0 0,-8.34961 8.35401,0 z m -16.84864,0 -8.354,0 0,-8.34961 8.354,0 z m -16.99365,0 -8.34961,0 0,-8.34961 8.34961,0 z m -16.98926,0 -8.354,0 0,-8.34961 8.354,0 z"
         inkscape:connector-curvature="0" />
      <path
         id="path3044"
         style="font-size:144px;font-style:normal;font-variant:normal;font-weight:normal;font-stretch:normal;line-height:125%;letter-spacing:0px;word-spacing:0px;fill:#aa0000;fill-opacity:1;stroke:none;font-family:ComputerAmok;-inkscape-font-specification:ComputerAmok"
         d="m 580.41604,91.12069 -8.20899,0 0,-8.354 8.20899,0 z m -16.84864,0 -8.34961,0 0,-8.354 8.34961,0 z m 16.84864,16.84424 -8.20899,0 0,-8.34961 8.20899,0 z m -33.83789,-16.84424 -8.35401,0 0,-8.354 8.35401,0 z m 33.83789,33.83789 -8.20899,0 0,-8.34961 8.20899,0 z m -50.68653,-33.83789 -8.354,0 0,-8.354 8.354,0 z m 50.68653,50.83155 -8.20899,0 0,-8.35401 8.20899,0 z m -67.68018,-50.83155 -8.34961,0 0,-8.354 8.34961,0 z m 67.68018,67.68018 -8.20899,0 0,-8.35401 8.20899,0 z m -84.66944,-67.68018 -8.354,0 0,-8.354 8.354,0 z m 33.98291,33.83789 -8.354,0 0,-8.34961 8.354,0 z m 50.68653,50.83155 -8.20899,0 0,-8.34961 8.20899,0 z m 0,16.84863 -8.20899,0 0,-8.34961 8.20899,0 z m -16.84864,16.99365 -76.1748,0 0,-76.03418 50.83154,0 0,-25.6333 -25.48828,0 0,16.99365 -25.34326,0 0,-25.34326 76.1748,0 z m 16.84864,0 -8.20899,0 0,-8.354 8.20899,0 z m 0,16.98926 -8.20899,0 0,-8.34961 8.20899,0 z m -16.84864,0 -8.34961,0 0,-8.34961 8.34961,0 z m -16.98925,0 -8.35401,0 0,-8.34961 8.35401,0 z m -16.84864,0 -8.354,0 0,-8.34961 8.354,0 z m -16.99365,0 -8.34961,0 0,-8.34961 8.34961,0 z m -16.98926,0 -8.354,0 0,-8.34961 8.354,0 z m 42.33252,-25.48828 0,-59.18115 -25.19824,0 0,59.18115 z m -8.34961,-42.33252 -8.354,0 0,-8.35401 8.354,0 z m 0,16.98926 -8.354,0 0,-8.34961 8.354,0 z m 0,16.84863 -8.354,0 0,-8.34961 8.354,0 z"
         inkscape:connector-curvature="0" />
      <path
         id="path3046"
         style="font-size:144px;font-style:normal;font-variant:normal;font-weight:normal;font-stretch:normal;line-height:125%;letter-spacing:0px;word-spacing:0px;fill:#aa0000;fill-opacity:1;stroke:none;font-family:ComputerAmok;-inkscape-font-specification:ComputerAmok"
         d="m 680.82229,91.12069 -8.20899,0 0,-8.354 8.20899,0 z m -16.84864,0 -8.34961,0 0,-8.354 8.34961,0 z m 16.84864,16.84424 -8.20899,0 0,-8.34961 8.20899,0 z m -33.83789,-16.84424 -8.35401,0 0,-8.354 8.35401,0 z m 16.98925,16.84424 -8.34961,0 0,-8.34961 8.34961,0 z m 16.84864,16.99365 -8.20899,0 0,-8.34961 8.20899,0 z m -50.68653,-33.83789 -8.354,0 0,-8.354 8.354,0 z m 16.84864,16.84424 -8.35401,0 0,-8.34961 8.35401,0 z m 16.98925,16.99365 -8.34961,0 0,-8.34961 8.34961,0 z m 16.84864,16.99366 -8.20899,0 0,-8.35401 8.20899,0 z m -67.68018,-50.83155 -8.34961,0 0,-8.354 8.34961,0 z m 16.99365,16.84424 -8.354,0 0,-8.34961 8.354,0 z m 16.84864,16.99365 -8.35401,0 0,-8.34961 8.35401,0 z m 16.98925,16.99366 -8.34961,0 0,-8.35401 8.34961,0 z m 16.84864,16.84863 -8.20899,0 0,-8.35401 8.20899,0 z m -84.66944,-67.68018 -8.354,0 0,-8.354 8.354,0 z m 33.98291,33.83789 -8.354,0 0,-8.34961 8.354,0 z m 16.84864,16.99366 -8.35401,0 0,-8.35401 8.35401,0 z m 16.98925,16.84863 -8.34961,0 0,-8.35401 8.34961,0 z m 16.84864,16.98926 -8.20899,0 0,-8.34961 8.20899,0 z m -50.68653,-33.83789 -8.354,0 0,-8.35401 8.354,0 z m 16.84864,16.84863 -8.35401,0 0,-8.35401 8.35401,0 z m 33.83789,33.83789 -8.20899,0 0,-8.34961 8.20899,0 z m -16.84864,16.99365 -76.1748,0 0,-110.01709 25.34326,0 0,101.66309 25.48828,0 0,-33.83789 25.34326,0 z m -33.83789,-50.83154 -8.354,0 0,-8.35401 8.354,0 z m 50.68653,50.83154 -8.20899,0 0,-8.354 8.20899,0 z m -50.68653,-33.84228 -8.354,0 0,-8.34961 8.354,0 z m 50.68653,50.83154 -8.20899,0 0,-8.34961 8.20899,0 z m -50.68653,-33.98291 -8.354,0 0,-8.34961 8.354,0 z m 33.83789,33.98291 -8.34961,0 0,-8.34961 8.34961,0 z m -16.98925,0 -8.35401,0 0,-8.34961 8.35401,0 z m -16.84864,0 -8.354,0 0,-8.34961 8.354,0 z m -16.99365,0 -8.34961,0 0,-8.34961 8.34961,0 z m -16.98926,0 -8.354,0 0,-8.34961 8.354,0 z"
         inkscape:connector-curvature="0" />
      <path
         id="path3048"
         style="font-size:144px;font-style:normal;font-variant:normal;font-weight:normal;font-stretch:normal;line-height:125%;letter-spacing:0px;word-spacing:0px;fill:#aa0000;fill-opacity:1;stroke:none;font-family:ComputerAmok;-inkscape-font-specification:ComputerAmok"
         d="m 781.50979,91.12069 -8.20899,0 0,-8.354 8.20899,0 z m -16.84864,0 -8.34961,0 0,-8.354 8.34961,0 z m 16.84864,16.84424 -8.20899,0 0,-8.34961 8.20899,0 z m -33.83789,-16.84424 -8.35401,0 0,-8.354 8.35401,0 z m 33.83789,33.83789 -8.20899,0 0,-8.34961 8.20899,0 z m -50.68653,-33.83789 -8.354,0 0,-8.354 8.354,0 z m 50.68653,50.83155 -8.20899,0 0,-8.35401 8.20899,0 z m -67.68018,-50.83155 -8.34961,0 0,-8.354 8.34961,0 z m 67.68018,67.68018 -8.20899,0 0,-8.35401 8.20899,0 z m -84.66944,-67.68018 -8.354,0 0,-8.354 8.354,0 z m 84.66944,84.66944 -8.20899,0 0,-8.34961 8.20899,0 z m 0,16.84863 -8.20899,0 0,-8.34961 8.20899,0 z m -16.84864,16.99365 -76.1748,0 0,-110.01709 76.1748,0 z m 16.84864,0 -8.20899,0 0,-8.354 8.20899,0 z m 0,16.98926 -8.20899,0 0,-8.34961 8.20899,0 z m -16.84864,0 -8.34961,0 0,-8.34961 8.34961,0 z m -16.98925,0 -8.35401,0 0,-8.34961 8.35401,0 z m -16.84864,0 -8.354,0 0,-8.34961 8.354,0 z m -16.99365,0 -8.34961,0 0,-8.34961 8.34961,0 z m -16.98926,0 -8.354,0 0,-8.34961 8.354,0 z m 42.33252,-25.48828 0,-93.02344 -25.19824,0 0,93.02344 z m -8.34961,-76.17481 -8.354,0 0,-8.34961 8.354,0 z m 0,16.99366 -8.354,0 0,-8.35401 8.354,0 z m 0,16.84863 -8.354,0 0,-8.35401 8.354,0 z m 0,16.98926 -8.354,0 0,-8.34961 8.354,0 z m 0,16.84863 -8.354,0 0,-8.34961 8.354,0 z"
         inkscape:connector-curvature="0" />
      <path
         id="path3050"
         style="font-size:144px;font-style:normal;font-variant:normal;font-weight:normal;font-stretch:normal;line-height:125%;letter-spacing:0px;word-spacing:0px;fill:#aa0000;fill-opacity:1;stroke:none;font-family:ComputerAmok;-inkscape-font-specification:ComputerAmok"
         d="m 882.19729,91.12069 -8.20899,0 0,-8.354 8.20899,0 z m -16.84864,0 -8.34961,0 0,-8.354 8.34961,0 z m 16.84864,16.84424 -8.20899,0 0,-8.34961 8.20899,0 z m -33.83789,-16.84424 -8.35401,0 0,-8.354 8.35401,0 z m 33.83789,33.83789 -8.20899,0 0,-8.34961 8.20899,0 z m -50.68653,-33.83789 -8.354,0 0,-8.354 8.354,0 z m 50.68653,50.83155 -8.20899,0 0,-8.35401 8.20899,0 z m -67.68018,-50.83155 -8.34961,0 0,-8.354 8.34961,0 z m 67.68018,67.68018 -8.20899,0 0,-8.35401 8.20899,0 z m -84.66944,-67.68018 -8.354,0 0,-8.354 8.354,0 z m 84.66944,84.66944 -8.20899,0 0,-8.34961 8.20899,0 z m 0,16.84863 -8.20899,0 0,-8.34961 8.20899,0 z m -16.84864,16.99365 -25.34326,0 0,-50.83154 -25.48828,0 0,50.83154 -25.34326,0 0,-110.01709 76.1748,0 0,50.68652 -16.98925,0 0,8.63965 16.98925,0 z m 16.84864,0 -8.20899,0 0,-8.354 8.20899,0 z m -50.68653,-33.84228 -8.354,0 0,-8.34961 8.354,0 z m 50.68653,50.83154 -8.20899,0 0,-8.34961 8.20899,0 z m -50.68653,-33.98291 -8.354,0 0,-8.34961 8.354,0 z m 33.83789,33.98291 -8.34961,0 0,-8.34961 8.34961,0 z m -33.83789,-16.98926 -8.354,0 0,-8.354 8.354,0 z m 16.84864,16.98926 -8.35401,0 0,-8.34961 8.35401,0 z m -16.84864,0 -8.354,0 0,-8.34961 8.354,0 z m -16.99365,0 -8.34961,0 0,-8.34961 8.34961,0 z m -16.98926,0 -8.354,0 0,-8.34961 8.354,0 z m 42.33252,-76.31983 0,-42.19189 -25.19824,0 0,42.19189 z m -8.34961,-25.34326 -8.354,0 0,-8.34961 8.354,0 z m 0,16.99366 -8.354,0 0,-8.35401 8.354,0 z"
         inkscape:connector-curvature="0" />
      <path
         id="path3052"
         style="font-size:144px;font-style:normal;font-variant:normal;font-weight:normal;font-stretch:normal;line-height:125%;letter-spacing:0px;word-spacing:0px;fill:#aa0000;fill-opacity:1;stroke:none;font-family:ComputerAmok;-inkscape-font-specification:ComputerAmok"
         d="m 982.88476,91.12069 -8.209,0 0,-8.354 8.209,0 z m -16.8486,0 -8.3496,0 0,-8.354 8.3496,0 z m 16.8486,16.84424 -8.209,0 0,-8.34961 8.209,0 z m -33.8379,-16.84424 -8.35397,0 0,-8.354 8.35397,0 z m 33.8379,33.83789 -8.209,0 0,-8.34961 8.209,0 z m -50.6865,-33.83789 -8.354,0 0,-8.354 8.354,0 z m 50.6865,50.83155 -8.209,0 0,-8.35401 8.209,0 z m -67.68015,-50.83155 -8.34961,0 0,-8.354 8.34961,0 z m 67.68015,67.68018 -8.209,0 0,-8.35401 8.209,0 z m -84.66941,-67.68018 -8.354,0 0,-8.354 8.354,0 z m 33.98291,33.83789 -8.354,0 0,-8.34961 8.354,0 z m 33.8379,33.84229 -8.3496,0 0,-8.35401 8.3496,0 z m 16.8486,16.98926 -8.209,0 0,-8.34961 8.209,0 z m -50.6865,-33.83789 -8.354,0 0,-8.35401 8.354,0 z m 16.8486,16.84863 -8.35397,0 0,-8.35401 8.35397,0 z m 33.8379,33.83789 -8.209,0 0,-8.34961 8.209,0 z m -16.8486,16.99365 -76.17481,0 0,-110.01709 76.17481,0 0,42.33692 -25.34327,0 0,-33.98731 -25.48828,0 0,42.48193 16.99365,0 0,8.35401 -16.99365,0 0,42.47754 25.48828,0 0,-33.83789 25.34327,0 z m 16.8486,0 -8.209,0 0,-8.354 8.209,0 z m -50.6865,-33.84228 -8.354,0 0,-8.34961 8.354,0 z m 50.6865,50.83154 -8.209,0 0,-8.34961 8.209,0 z m -50.6865,-33.98291 -8.354,0 0,-8.34961 8.354,0 z m 33.8379,33.98291 -8.3496,0 0,-8.34961 8.3496,0 z m -16.9893,0 -8.35397,0 0,-8.34961 8.35397,0 z m -16.8486,0 -8.354,0 0,-8.34961 8.354,0 z m -16.99365,0 -8.34961,0 0,-8.34961 8.34961,0 z m -16.98926,0 -8.354,0 0,-8.34961 8.354,0 z"
         inkscape:connector-curvature="0" />
    </g>
  </g>
</svg>
